# xmcd
#
# Track frame offsets:
#	150
#	6611
#	23261
#	48012
#	72037
#	89068
#	110017
#	137717
#	160483
#	180930
#
# Disc length: 2728 seconds
#
# Revision: 1
# Processed by: cddbd v1.5.1PL0 Copyright (c) Steve Scherf et al.
# Submitted via: CDex 1.50Beta5
#
DISCID=7b0aa60a
DTITLE=山本達彦 - La Plage
DYEAR=2002
DGENRE=
TTITLE0=La Vague Blanche
TTITLE1=Improvise
TTITLE2=ひき潮
TTITLE3=君と輝く夜に
TTITLE4=11:00am
TTITLE5=Dommage
TTITLE6=C’est La Vie
TTITLE7=夕なぎの島
TTITLE8=Le Theatre Melancolique
TTITLE9=ひき潮(instrumental Version)
EXTD=
EXTT0=
EXTT1=
EXTT2=
EXTT3=
EXTT4=
EXTT5=
EXTT6=
EXTT7=
EXTT8=
EXTT9=
PLAYORDER=
